# xmcd CD database file
#
# Track frame offsets:
#	150
#	20242
#	39410
#
# Disc length: 814 seconds
#
# Revision: 2
# Processed by: cddbd v1.4b41PL1 Copyright (c) Steve Scherf et al.
# Submitted via: Feurio! 1.60 - http://www.feurio.com
#
DISCID=1c032c03,1f032c03
DTITLE=Richard Marx - Right Here Waiting (Single CD)
DYEAR=1900
DGENRE=
TTITLE0=Right Here Waiting
TTITLE1=Wait For The Sunrise
TTITLE2=Hold On To The Nights
EXTD=
EXTT0=
EXTT1=
EXTT2=
PLAYORDER=
